Exact Audio Copy V0.99 prebeta 1 from 25. May 2007

EAC 抓取日志文件从27. 二月 2011, 0:17

黄虹 / 20世纪中华歌坛名人百集珍藏版

使用驱动器  ：PIONEER DVD-RW  DVR-115   Adapter: 0  ID: 0

读取模式     : 保护
使用精确流   : 是
废除音频缓冲 : 是
使用 C2 指针 : 否

组合读/写偏移校正              : 48
读取 Lead-In 和 Lead-Out       : 否
用静音填充抓取中丢失偏移的采样 : 是
去除首尾静音块                 : 否
已用接口                       : Win NT 及 2000 本地 Win32 接口

所用输出格式 : 内部 WAV 函数
样本格式     : 44.100 Hz;16 Bit;立体声
使用压缩偏移 : 48


被抓轨 CD 的 TOC

     音轨 |   开始   |   长度   | 起始扇区 | 结尾扇区 
    --------------------------------------------------
       1  |  0:00.00 |  1:44.47 |       0  |    7846  
       2  |  1:44.47 |  1:19.48 |    7847  |   13819  
       3  |  3:04.20 |  2:20.70 |   13820  |   24389  
       4  |  5:25.15 |  1:19.15 |   24390  |   30329  
       5  |  6:44.30 |  2:39.05 |   30330  |   42259  
       6  |  9:23.35 |  1:48.45 |   42260  |   50404  
       7  | 11:12.05 |  2:19.20 |   50405  |   60849  
       8  | 13:31.25 |  2:31.45 |   60850  |   72219  
       9  | 16:02.70 |  1:37.50 |   72220  |   79544  
      10  | 17:40.45 |  2:13.57 |   79545  |   89576  
      11  | 19:54.27 |  2:13.45 |   89577  |   99596  
      12  | 22:07.72 |  2:06.28 |   99597  |  109074  
      13  | 24:14.25 |  1:51.60 |  109075  |  117459  
      14  | 26:06.10 |  1:55.67 |  117460  |  126151  
      15  | 28:02.02 |  1:35.58 |  126152  |  133334  
      16  | 29:37.60 |  1:27.20 |  133335  |  139879  
      17  | 31:05.05 |  2:06.47 |  139880  |  149376  
      18  | 33:11.52 |  3:29.60 |  149377  |  165111  
      19  | 36:41.37 |  1:28.00 |  165112  |  171711  
      20  | 38:09.37 |  1:46.55 |  171712  |  179716  
      21  | 39:56.17 |  1:51.08 |  179717  |  188049  
      22  | 41:47.25 |  1:32.47 |  188050  |  194996  
      23  | 43:19.72 |  1:55.60 |  194997  |  203681  
      24  | 45:15.57 |  1:37.10 |  203682  |  210966  
      25  | 46:52.67 |  1:12.10 |  210967  |  216376  
      26  | 48:05.02 |  2:10.38 |  216377  |  226164  
      27  | 50:15.40 |  1:44.67 |  226165  |  234031  
      28  | 52:00.32 |  2:31.26 |  234032  |  245382  
      29  | 54:31.58 |  2:20.02 |  245383  |  255884  
      30  | 56:51.60 |  3:10.57 |  255885  |  270191  


范围状态及错误

已选择范围

     文件名 E:\20世纪中华歌坛名人百集珍藏版-黄虹[lwg188原创]\黄虹 - 20世纪中华歌坛名人百集珍藏版.wav

     峰值电平 100.0 %
     范围质量 99.9 %
     复制 CRC 6C912BAE
     复制成功

没有错误发生

状态报告结尾
